<svg width="65" height="65" viewBox="0 0 65 65" fill="none" xmlns="http://www.w3.org/2000/svg">
<path d="M13.5417 21.6667H36.4271H35.2083H36.1563H13.5417ZM14.625 16.25H50.375L48.0729 13.5417H16.9271L14.625 16.25ZM27.0833 34.5313L32.5 31.8229L37.9167 34.5313V21.6667H27.0833V34.5313ZM39.4063 56.875H13.5417C12.0521 56.875 10.7774 56.3451 9.7175 55.2852C8.65764 54.2254 8.12681 52.9497 8.125 51.4583V17.6719C8.125 17.0399 8.22701 16.4306 8.43104 15.8438C8.63507 15.257 8.93931 14.7153 9.34375 14.2188L12.7292 10.0886C13.2257 9.45661 13.8459 8.97092 14.5898 8.63147C15.3337 8.29203 16.1128 8.12321 16.9271 8.12501H48.0729C48.8854 8.12501 49.6645 8.29474 50.4102 8.63418C51.1559 8.97363 51.7761 9.45842 52.2708 10.0886L55.6562 14.2188C56.0625 14.7153 56.3676 15.257 56.5717 15.8438C56.7757 16.4306 56.8768 17.0399 56.875 17.6719V30.9427C56.0174 30.6268 55.1372 30.3785 54.2344 30.1979C53.3316 30.0174 52.4063 29.9271 51.4583 29.9271V21.6667H43.3333V32.0261C41.7535 32.9288 40.3767 34.0465 39.2031 35.379C38.0295 36.7115 37.1042 38.2119 36.4271 39.8802L32.5 37.9167L21.6667 43.3333V21.6667H13.5417V51.4583H36.1563C36.5174 52.4965 36.9688 53.467 37.5104 54.3698C38.0521 55.2726 38.684 56.1077 39.4063 56.875ZM48.75 56.875V48.75H40.625V43.3333H48.75V35.2083H54.1667V43.3333H62.2917V48.75H54.1667V56.875H48.75Z" fill="#F8F8F8"/>
</svg>
