<svg width="70" height="65" viewBox="0 0 70 65" fill="none" xmlns="http://www.w3.org/2000/svg">
<path d="M30.0125 51.4583H17.5V54.1667C17.5 55.5208 16.3333 56.875 14.5833 56.875H11.6667C10.2083 56.875 8.75 55.5208 8.75 54.1667V32.5L14.875 16.25C15.4583 14.625 16.9167 13.5417 18.9583 13.5417H51.0417C52.7917 13.5417 54.5417 14.625 55.125 16.25L60.9875 31.7958C58.8173 29.5808 56.0778 27.9129 53.025 26.9479L49.875 18.9583H19.8333L16.9167 27.0833H40.5708C37.3042 28.1667 34.4458 30.0625 32.3167 32.5H14.5833V46.0417H28.2333C28.525 47.9646 29.1667 49.7792 30.0125 51.4583ZM17.5 39.2708C17.5 41.4375 19.5417 43.3333 21.875 43.3333C24.2083 43.3333 26.25 41.4375 26.25 39.2708C26.25 37.1042 24.2083 35.2083 21.875 35.2083C19.5417 35.2083 17.5 37.1042 17.5 39.2708ZM46.9875 31.4437C39.6958 31.4437 33.8625 36.8604 33.8625 43.6312C33.8625 50.4021 39.6958 55.8187 46.9875 55.8187C49.5833 55.8187 51.9167 55.1417 53.9583 53.9771L63.0292 62.2917L67.0833 58.5271L58.1 50.1042C59.3833 48.2625 60.1125 46.0417 60.1125 43.6312C60.1125 36.8604 54.2792 31.4437 46.9875 31.4437ZM46.9875 36.8604C51.0417 36.8604 54.2792 39.8937 54.2792 43.6312C54.2792 47.3687 51.0417 50.4021 46.9875 50.4021C42.9333 50.4021 39.6958 47.3958 39.6958 43.6312C39.6958 39.8667 42.9625 36.8604 46.9875 36.8604Z" fill="#F8F8F8"/>
</svg>
