<svg width="60" height="60" viewBox="0 0 60 60" fill="none" xmlns="http://www.w3.org/2000/svg">
<path d="M45 45V48.75H49.6125C48.5644 49.9325 47.2767 50.8785 45.8349 51.525C44.3931 52.1716 42.8302 52.5039 41.25 52.5C38.2674 52.4965 35.4079 51.3101 33.2989 49.2011C31.1899 47.0921 30.0035 44.2326 30 41.25H26.25C26.2439 44.3001 27.1696 47.2792 28.9032 49.7887C30.6368 52.2982 33.0956 54.2183 35.9505 55.2919C38.8054 56.3656 41.9201 56.5415 44.8777 55.7963C47.8354 55.051 50.4948 53.4201 52.5 51.1219V56.25H56.25V45H45ZM41.25 26.25C39.1189 26.261 37.0143 26.7237 35.0751 27.6077C33.1359 28.4916 31.4062 29.7767 30 31.3781V26.25H26.25V37.5H37.5V33.75H32.8875C33.9356 32.5675 35.2234 31.6215 36.6652 30.975C38.107 30.3284 39.6699 29.9961 41.25 30C44.2326 30.0035 47.0921 31.1899 49.2011 33.2989C51.3102 35.4079 52.4966 38.2674 52.5 41.25H56.25C56.2451 37.2733 54.6631 33.4609 51.8512 30.6489C49.0392 27.8369 45.2268 26.255 41.25 26.25Z" fill="#F8F8F8"/>
<path d="M22.5 52.5H11.25V45H15V41.25H11.25V31.875H15V28.125H11.25V18.75H15V15H11.25V7.5H45V22.5H48.75V7.5C48.75 6.50544 48.3549 5.55161 47.6516 4.84835C46.9484 4.14509 45.9946 3.75 45 3.75H11.25C10.2554 3.75 9.30161 4.14509 8.59835 4.84835C7.89509 5.55161 7.5 6.50544 7.5 7.5V15H3.75V18.75H7.5V28.125H3.75V31.875H7.5V41.25H3.75V45H7.5V52.5C7.5 53.4946 7.89509 54.4484 8.59835 55.1516C9.30161 55.8549 10.2554 56.25 11.25 56.25H22.5V52.5Z" fill="#F8F8F8"/>
</svg>
