<svg width="60" height="60" viewBox="0 0 60 60" fill="none" xmlns="http://www.w3.org/2000/svg">
<path d="M15 6C15 4.4087 15.6321 2.88258 16.7574 1.75736C17.8826 0.632141 19.4087 0 21 0H39C40.5913 0 42.1174 0.632141 43.2426 1.75736C44.3679 2.88258 45 4.4087 45 6V12H57C57.7957 12 58.5587 12.3161 59.1213 12.8787C59.6839 13.4413 60 14.2044 60 15C60 15.7956 59.6839 16.5587 59.1213 17.1213C58.5587 17.6839 57.7957 18 57 18H53.793L51.192 54.426C51.0842 55.9398 50.4069 57.3564 49.2963 58.3907C48.1858 59.425 46.7246 60 45.207 60H14.79C13.2724 60 11.8112 59.425 10.7007 58.3907C9.59011 57.3564 8.91275 55.9398 8.805 54.426L6.21 18H3C2.20435 18 1.44129 17.6839 0.87868 17.1213C0.31607 16.5587 0 15.7956 0 15C0 14.2044 0.31607 13.4413 0.87868 12.8787C1.44129 12.3161 2.20435 12 3 12H15V6ZM21 12H39V6H21V12ZM12.222 18L14.793 54H45.21L47.781 18H12.222ZM24 24C24.7956 24 25.5587 24.3161 26.1213 24.8787C26.6839 25.4413 27 26.2044 27 27V45C27 45.7957 26.6839 46.5587 26.1213 47.1213C25.5587 47.6839 24.7956 48 24 48C23.2044 48 22.4413 47.6839 21.8787 47.1213C21.3161 46.5587 21 45.7957 21 45V27C21 26.2044 21.3161 25.4413 21.8787 24.8787C22.4413 24.3161 23.2044 24 24 24ZM36 24C36.7957 24 37.5587 24.3161 38.1213 24.8787C38.6839 25.4413 39 26.2044 39 27V45C39 45.7957 38.6839 46.5587 38.1213 47.1213C37.5587 47.6839 36.7957 48 36 48C35.2043 48 34.4413 47.6839 33.8787 47.1213C33.3161 46.5587 33 45.7957 33 45V27C33 26.2044 33.3161 25.4413 33.8787 24.8787C34.4413 24.3161 35.2043 24 36 24Z" fill="#F8F8F8"/>
</svg>
